<?xml version="1.0" encoding="utf-8"?>
<!-- Generator: Adobe Illustrator 25.0.1, SVG Export Plug-In . SVG Version: 6.00 Build 0)  -->
<svg version="1.1" id="Слой_1" xmlns="http://www.w3.org/2000/svg" xmlns:xlink="http://www.w3.org/1999/xlink" x="0px" y="0px"
	 viewBox="0 0 414.38 211.49" style="enable-background:new 0 0 414.38 211.49;" xml:space="preserve">
<style type="text/css">
	.st0{fill:#22EFD6;}
	.st1{fill:#2ABFB0;}
	.st2{fill:#0A1126;}
</style>
<path class="st0" d="M414.38,211.49c0-70.76,0-141.1,0-211.49c-0.9,0-1.64-0.05-2.38,0.01c-9.53,0.8-19.06,1.62-28.59,2.43
	c-10.11,0.86-20.22,1.72-30.33,2.59c-12.68,1.1-25.35,2.24-38.03,3.32c-12.76,1.09-25.53,2.12-38.29,3.21
	c-14.84,1.26-29.67,2.56-44.51,3.83c-12.1,1.04-24.21,2.08-36.31,3.05c-1.71,0.14-2.31,0.79-2.21,2.48
	c0.12,2.16,0.03,4.32,0.03,6.49c0,4.05,0,8.1,0,12.19c2.11,0,3.88,0,5.94,0c0-5.33,0-10.44,0-15.69
	c69.85-5.95,139.42-11.88,209.03-17.81c0,66.45,0,132.64,0,199.12c-2.47-0.21-4.77-0.41-7.06-0.6c-14.59-1.21-29.17-2.4-43.76-3.65
	c-16.49-1.41-32.97-2.9-49.46-4.3c-16.66-1.42-33.32-2.77-49.98-4.18c-18.65-1.59-37.3-3.27-55.96-4.75
	c-2.41-0.19-3.08-0.87-2.98-3.21c0.19-4.21,0.05-8.44,0.05-12.78c-2.06,0-3.77,0-5.61,0c0,7.03,0,13.95,0,21.06
	C267.52,199.03,340.85,205.26,414.38,211.49z M318.48,114.87c0-3.33-0.1-6.4,0.04-9.45c0.09-1.93-0.67-2.36-2.46-2.34
	c-9.65,0.08-19.3,0.04-28.95,0.04c-0.89,0-1.78,0-2.76,0c0-5.57,0-10.84,0-16.42c9.42,0,18.68,0,28.23,0
	c-0.86-3.49-1.72-6.6-2.36-9.76c-0.32-1.61-1-2.18-2.65-2.14c-4.57,0.1-9.15,0.04-13.73,0.04c-3.14,0-6.27,0-9.52,0
	c0-5.56,0-10.84,0-16.41c11.38,0,22.64,0,34,0c0-4.08,0-7.86,0-11.73c-15.41,0-30.66,0-45.88,0c0,22.84,0,45.47,0,68.2
	C287.79,114.87,302.91,114.87,318.48,114.87z M207.22,89.7c1.05,0.97,1.7,1.54,2.32,2.16c7.3,7.29,14.59,14.59,21.91,21.86
	c0.62,0.62,1.43,1.47,2.16,1.49c5.19,0.13,10.39,0.07,15.58,0.07c0.12-0.23,0.24-0.45,0.37-0.68
	c-11.35-11.16-22.69-22.32-34.59-34.03c11.48-11.47,22.6-22.58,33.8-33.77c-4.62,0-9.27-0.09-13.92,0.07
	c-1.17,0.04-2.59,0.61-3.43,1.42c-7.51,7.31-14.92,14.73-22.37,22.11c-0.49,0.49-1.05,0.91-1.95,1.7c0-8.72,0-16.92,0-25.19
	c-4.07,0-7.91,0-11.79,0c0,22.73,0,45.23,0,67.85c3.99,0,7.83,0,11.91,0C207.22,106.46,207.22,98.36,207.22,89.7z M164.09,97.87
	c-10.75,6.2-12.04,6.73-18.25,6.32c-7.11-0.47-12.91-3.54-17.22-9.24c-6.31-8.35-6.92-20.97,1.49-30.26
	c3.47-3.83,7.76-6.28,12.81-7.18c8.13-1.45,15.29,0.74,20.99,6.1c2.9-2.88,5.63-5.59,8.37-8.3c-13.67-13.77-37.07-13.59-50.45,0.55
	c-13.68,14.46-12.96,38.07,1.07,50.69c16.9,15.21,39.51,10.52,49.37-0.65C169.56,103.24,166.86,100.58,164.09,97.87z M31.97,58.32
	c6.83,0,13.29,0,19.77,0c0-4,0-7.78,0-11.65c-17.34,0-34.52,0-51.71,0c0,3.99,0,7.77,0,11.86c6.7,0,13.22,0,19.99,0
	c0,18.92,0,37.53,0,56.22c4.09,0,7.93,0,11.96,0C31.97,95.92,31.97,77.32,31.97,58.32z M393.4,46.67c-17.4,0-34.58,0-51.78,0
	c0,3.99,0,7.78,0,11.86c6.68,0,13.2,0,19.94,0c0,18.9,0,37.51,0,56.24c4.06,0,7.9,0,12.06,0c0-18.86,0-37.52,0-56.43
	c6.77,0,13.22,0,19.78,0C393.4,54.37,393.4,50.65,393.4,46.67z M0,122.38c0,14.53,0,28.63,0,42.82c2.52,0,4.87,0,7.49,0
	c0-9.77,0-19.34,0-28.91c0.15-0.04,0.3-0.07,0.44-0.11c4.43,6.85,8.87,13.71,13.48,20.83c4.67-7.19,9.07-13.96,13.47-20.74
	c0.17,0.06,0.34,0.13,0.51,0.19c0,0.81,0,1.61,0,2.42c0,8.07-0.01,16.13,0.01,24.2c0,1.02-0.32,2.31,1.43,2.3
	c1.97-0.01,3.93,0,5.93,0c0-14.49,0-28.64,0-43.03c-1.78,0-3.36,0.13-4.91-0.03c-2.17-0.23-3.46,0.55-4.62,2.45
	c-3.33,5.46-6.89,10.78-10.38,16.15c-0.42,0.65-0.92,1.25-1.53,2.08c-4.2-6.51-8.18-12.73-12.23-18.91
	c-0.46-0.69-1.25-1.56-1.95-1.63C4.84,122.25,2.52,122.38,0,122.38z M283.33,128.28c-8.25-8.12-20.63-8.95-29.03-2.15
	c-9.76,7.9-11.92,19.91-5.41,29.98c5.87,9.08,18.24,12.66,27.7,8.33c11.39-5.2,15.2-17.97,12.78-24.19c-8.36,0-16.74,0-25.34,0
	c-0.58,2.43-1.16,4.81-1.82,7.53c6.73,0,13.09,0,19.49,0c-1.09,5.5-6.34,10.29-11.65,10.84c-7.36,0.77-13.31-2.52-16.02-8.84
	c-2.56-5.97-0.89-12.9,4.14-17.21c5.42-4.65,11.91-4.43,20.12,0.65C279.92,131.61,281.57,130,283.33,128.28z M163.18,122.35
	c-1.79,0-3.44,0.1-5.07-0.03c-1.89-0.15-2.42,0.62-2.4,2.45c0.08,7.73,0.04,15.47,0.03,23.2c0,0.76-0.09,1.53-0.17,2.87
	c-0.79-1.24-1.24-1.92-1.66-2.62c-4.68-7.95-9.33-15.91-14.03-23.85c-0.44-0.74-1.1-1.83-1.74-1.89c-2.43-0.22-4.89-0.09-7.32-0.09
	c0,14.54,0,28.64,0,42.78c2.51,0,4.86,0,7.49,0c0-9.36,0-18.51,0-28.32c0.81,1.31,1.26,2,1.67,2.7c4.73,8.01,9.44,16.04,14.21,24.03
	c0.42,0.71,1.19,1.64,1.87,1.7c2.35,0.21,4.73,0.08,7.12,0.08C163.18,150.88,163.18,136.78,163.18,122.35z M87.72,114.83
	c0-22.71,0-45.28,0-68c-3.92,0-7.71,0-11.67,0c0,22.71,0,45.28,0,68C80.01,114.83,83.8,114.83,87.72,114.83z M384.88,151.99
	c0.9-0.62,1.61-1.04,2.24-1.56c5.11-4.11,7.46-9.38,5.89-15.86c-1.49-6.14-5.39-10.74-11.7-11.55c-6.28-0.8-12.73-0.18-19.23-0.18
	c0,14.17,0,28.33,0,42.77c1.74,0,3.31-0.1,4.87,0.03c1.94,0.16,2.6-0.52,2.58-2.53c-0.1-9.9-0.05-19.8-0.05-29.7
	c0-0.97,0-1.95,0-3.19c3.28,0,6.25-0.09,9.21,0.03c3.01,0.12,5.18,1.77,6.45,4.42c1.29,2.67,1.01,5.33-0.71,7.79
	c-1.79,2.57-4.33,3.41-7.36,3.39c-0.87-0.01-2.21,0.29-2.54,0.88c-1.09,1.99-1.82,4.18-2.76,6.48c0.88,0.09,1.39,0.24,1.85,0.17
	c2.37-0.36,3.81,0.6,4.95,2.72c1.44,2.7,3.25,5.22,4.94,7.78c0.4,0.6,0.95,1.51,1.48,1.55c2.67,0.16,5.35,0.07,8.54,0.07
	C390.45,160.72,387.73,156.46,384.88,151.99z M311.34,122.72c-0.05,1.02-0.13,1.92-0.13,2.81c-0.01,4.57-0.01,9.14-0.01,13.71
	c0,7.98-0.01,15.96,0.01,23.94c0,1.12-0.27,2.44,1.59,2.43c8.65-0.02,17.3,0.01,25.95-0.05c0.51,0,1.42-0.55,1.44-0.89
	c0.13-2.17,0.07-4.35,0.07-6.66c-1.41,0-2.31,0-3.22,0c-5.32,0-10.65,0.05-15.97-0.05c-0.76-0.01-2.12-0.72-2.15-1.18
	c-0.2-2.94-0.1-5.9-0.1-9.04c6.12,0,11.84,0,17.8,0c-0.5-1.99-1.09-3.73-1.33-5.52c-0.24-1.77-1.18-2.07-2.72-2.04
	c-4.48,0.07-8.96,0.03-13.59,0.03c0-3.41,0-6.6,0-10.04c1.09,0,1.99,0,2.89,0c5.41,0,10.81,0.05,16.22-0.06
	c0.74-0.01,2.04-0.73,2.1-1.23c0.25-2.01,0.1-4.06,0.1-6.17C330.45,122.72,321,122.72,311.34,122.72z M230.67,165.6
	c-0.54-1.3-0.84-2.07-1.17-2.81c-5.26-11.65-10.77-23.19-15.66-34.99c-1.76-4.24-3.95-5.92-8.4-5.3c-1.64,0.23-2.64,0.49-3.38,2.15
	c-5.7,12.81-11.52,25.57-17.29,38.35c-0.33,0.72-0.55,1.49-0.88,2.4c0.76,0.09,1.24,0.19,1.72,0.21c6.18,0.2,6.23,0.22,8.68-5.36
	c0.66-1.51,1.45-2.1,3.14-2.05c5.04,0.13,10.09,0.05,15.6,0.05c-0.91-2.12-1.73-3.81-2.36-5.57c-0.55-1.55-1.42-2.17-3.14-2.07
	c-2.85,0.16-5.71,0.04-8.9,0.04c2.91-6.38,5.63-12.36,8.52-18.71c0.54,1.07,0.85,1.65,1.11,2.24c4.45,9.83,8.87,19.67,13.37,29.47
	c0.36,0.78,1.21,1.78,1.92,1.86C225.73,165.75,227.97,165.6,230.67,165.6z M63.39,165.3c0.8,0.16,1.18,0.27,1.57,0.3
	c6.34,0.43,6.38,0.44,8.95-5.34c0.66-1.49,1.43-2.11,3.14-2.07c5.04,0.13,10.09,0.05,15.65,0.05c-0.97-2.22-1.82-3.99-2.5-5.82
	c-0.51-1.38-1.32-1.87-2.81-1.82c-2.93,0.12-5.86,0.03-9.12,0.03c2.91-6.4,5.63-12.37,8.53-18.77c0.65,1.38,1.05,2.2,1.42,3.03
	c4.31,9.53,8.6,19.08,12.96,28.59c0.37,0.81,1.14,1.92,1.83,1.99c2.27,0.25,4.58,0.1,7.25,0.1c-0.49-1.22-0.78-2.06-1.15-2.86
	c-5.23-11.58-10.72-23.05-15.59-34.78c-1.78-4.29-3.93-6.15-8.56-5.47c-1.72,0.25-2.6,0.7-3.3,2.28c-3.21,7.3-6.56,14.53-9.84,21.8
	C69.06,152.69,66.31,158.81,63.39,165.3z"/>
<path class="st1" d="M414.38,211.49c-73.53-6.24-146.86-12.46-220.39-18.7c0-7.11,0-14.02,0-21.06c1.84,0,3.55,0,5.61,0
	c0,4.34,0.13,8.57-0.05,12.78c-0.1,2.34,0.57,3.02,2.98,3.21c18.66,1.48,37.3,3.16,55.96,4.75c16.66,1.42,33.32,2.76,49.98,4.18
	c16.49,1.41,32.97,2.9,49.46,4.3c14.58,1.25,29.17,2.43,43.76,3.65c2.3,0.19,4.6,0.39,7.06,0.6c0-66.48,0-132.67,0-199.12
	c-69.61,5.93-139.18,11.86-209.03,17.81c0,5.25,0,10.37,0,15.69c-2.06,0-3.83,0-5.94,0c0-4.09,0-8.14,0-12.19
	c0-2.16,0.09-4.33-0.03-6.49c-0.09-1.69,0.51-2.34,2.21-2.48c12.11-0.97,24.21-2.01,36.31-3.05c14.84-1.27,29.67-2.57,44.51-3.83
	c12.76-1.08,25.53-2.12,38.29-3.21c12.68-1.08,25.35-2.22,38.03-3.32c10.11-0.88,20.22-1.73,30.33-2.59
	c9.53-0.81,19.06-1.63,28.59-2.43c0.73-0.06,1.47-0.01,2.38-0.01C414.38,70.4,414.38,140.74,414.38,211.49z"/>
<path class="st2" d="M318.48,114.87c-15.56,0-30.68,0-46.05,0c0-22.72,0-45.36,0-68.2c15.22,0,30.46,0,45.88,0
	c0,3.87,0,7.65,0,11.73c-11.36,0-22.62,0-34,0c0,5.58,0,10.85,0,16.41c3.25,0,6.39,0,9.52,0c4.58,0,9.15,0.07,13.73-0.04
	c1.66-0.04,2.33,0.53,2.65,2.14c0.64,3.16,1.5,6.27,2.36,9.76c-9.55,0-18.81,0-28.23,0c0,5.58,0,10.85,0,16.42c0.98,0,1.87,0,2.76,0
	c9.65,0,19.3,0.04,28.95-0.04c1.79-0.01,2.55,0.41,2.46,2.34C318.37,108.47,318.48,111.53,318.48,114.87z"/>
<path class="st2" d="M207.22,89.7c0,8.66,0,16.76,0,25.07c-4.08,0-7.92,0-11.91,0c0-22.62,0-45.12,0-67.85c3.88,0,7.72,0,11.79,0
	c0,8.26,0,16.47,0,25.19c0.91-0.78,1.46-1.21,1.95-1.7c7.45-7.38,14.85-14.8,22.37-22.11c0.84-0.81,2.26-1.38,3.43-1.42
	c4.64-0.16,9.29-0.07,13.92-0.07c-11.19,11.18-22.31,22.29-33.8,33.77c11.9,11.71,23.25,22.87,34.59,34.03
	c-0.12,0.23-0.24,0.45-0.37,0.68c-5.19,0-10.39,0.06-15.58-0.07c-0.74-0.02-1.54-0.87-2.16-1.49c-7.32-7.27-14.61-14.58-21.91-21.86
	C208.92,91.24,208.26,90.67,207.22,89.7z"/>
<path class="st2" d="M164.09,97.87c2.76,2.72,5.46,5.37,8.17,8.02c-9.85,11.17-32.46,15.86-49.37,0.65
	c-14.03-12.63-14.75-36.24-1.07-50.69c13.38-14.14,36.78-14.32,50.45-0.55c-2.73,2.71-5.46,5.42-8.37,8.3
	c-5.71-5.36-12.87-7.55-20.99-6.1c-5.05,0.9-9.34,3.35-12.81,7.18c-8.41,9.29-7.8,21.91-1.49,30.26c4.31,5.71,10.11,8.77,17.22,9.24
	C152.05,104.6,153.34,104.07,164.09,97.87z"/>
<path class="st2" d="M31.97,58.32c0,19,0,37.6,0,56.43c-4.03,0-7.87,0-11.96,0c0-18.69,0-37.3,0-56.22c-6.77,0-13.29,0-19.99,0
	c0-4.09,0-7.87,0-11.86c17.2,0,34.37,0,51.71,0c0,3.87,0,7.65,0,11.65C45.26,58.32,38.81,58.32,31.97,58.32z"/>
<path class="st2" d="M393.4,46.67c0,3.98,0,7.69,0,11.67c-6.56,0-13.01,0-19.78,0c0,18.91,0,37.57,0,56.43c-4.16,0-8,0-12.06,0
	c0-18.73,0-37.34,0-56.24c-6.74,0-13.26,0-19.94,0c0-4.08,0-7.86,0-11.86C358.82,46.67,375.99,46.67,393.4,46.67z"/>
<path class="st2" d="M0,122.38c2.52,0,4.84-0.13,7.14,0.08c0.7,0.06,1.5,0.93,1.95,1.63c4.05,6.18,8.04,12.4,12.23,18.91
	c0.61-0.83,1.11-1.43,1.53-2.08c3.48-5.37,7.05-10.69,10.38-16.15c1.16-1.9,2.45-2.68,4.62-2.45c1.55,0.17,3.13,0.03,4.91,0.03
	c0,14.4,0,28.55,0,43.03c-1.99,0-3.96-0.01-5.93,0c-1.75,0.01-1.43-1.28-1.43-2.3c-0.02-8.07-0.01-16.13-0.01-24.2
	c0-0.81,0-1.61,0-2.42c-0.17-0.06-0.34-0.13-0.51-0.19c-4.4,6.78-8.8,13.55-13.47,20.74c-4.61-7.13-9.05-13.98-13.48-20.83
	c-0.15,0.04-0.3,0.07-0.44,0.11c0,9.57,0,19.15,0,28.91c-2.62,0-4.97,0-7.49,0C0,151.01,0,136.91,0,122.38z"/>
<path class="st2" d="M283.33,128.28c-1.76,1.72-3.4,3.33-5.05,4.95c-8.21-5.09-14.7-5.3-20.12-0.65
	c-5.03,4.32-6.69,11.24-4.14,17.21c2.71,6.33,8.66,9.61,16.02,8.84c5.31-0.55,10.56-5.34,11.65-10.84c-6.4,0-12.75,0-19.49,0
	c0.66-2.73,1.23-5.11,1.82-7.53c8.6,0,16.98,0,25.34,0c2.42,6.22-1.38,18.99-12.78,24.19c-9.46,4.32-21.83,0.75-27.7-8.33
	c-6.51-10.07-4.35-22.09,5.41-29.98C262.7,119.33,275.08,120.16,283.33,128.28z"/>
<path class="st2" d="M163.18,122.35c0,14.42,0,28.52,0,43.01c-2.39,0-4.77,0.13-7.12-0.08c-0.68-0.06-1.44-0.99-1.87-1.7
	c-4.77-7.99-9.48-16.01-14.21-24.03c-0.41-0.7-0.86-1.39-1.67-2.7c0,9.82,0,18.97,0,28.32c-2.63,0-4.98,0-7.49,0
	c0-14.13,0-28.23,0-42.78c2.43,0,4.89-0.13,7.32,0.09c0.64,0.06,1.3,1.15,1.74,1.89c4.7,7.93,9.36,15.9,14.03,23.85
	c0.41,0.7,0.87,1.38,1.66,2.62c0.08-1.35,0.17-2.11,0.17-2.87c0.01-7.73,0.05-15.47-0.03-23.2c-0.02-1.83,0.51-2.6,2.4-2.45
	C159.74,122.45,161.39,122.35,163.18,122.35z"/>
<path class="st2" d="M87.72,114.83c-3.93,0-7.71,0-11.67,0c0-22.72,0-45.29,0-68c3.96,0,7.74,0,11.67,0
	C87.72,69.55,87.72,92.12,87.72,114.83z"/>
<path class="st2" d="M384.88,151.99c2.86,4.47,5.58,8.73,8.64,13.53c-3.18,0-5.87,0.09-8.54-0.07c-0.52-0.03-1.08-0.94-1.48-1.55
	c-1.69-2.57-3.5-5.08-4.94-7.78c-1.14-2.13-2.58-3.09-4.95-2.72c-0.47,0.07-0.97-0.08-1.85-0.17c0.94-2.3,1.67-4.49,2.76-6.48
	c0.33-0.59,1.67-0.89,2.54-0.88c3.03,0.02,5.56-0.83,7.36-3.39c1.72-2.46,2-5.12,0.71-7.79c-1.27-2.64-3.44-4.3-6.45-4.42
	c-2.96-0.12-5.94-0.03-9.21-0.03c0,1.24,0,2.21,0,3.19c0,9.9-0.05,19.8,0.05,29.7c0.02,2-0.64,2.69-2.58,2.53
	c-1.55-0.13-3.13-0.03-4.87-0.03c0-14.44,0-28.6,0-42.77c6.5,0,12.96-0.63,19.23,0.18c6.31,0.81,10.21,5.41,11.7,11.55
	c1.57,6.48-0.77,11.74-5.89,15.86C386.48,150.95,385.77,151.37,384.88,151.99z"/>
<path class="st2" d="M311.34,122.72c9.66,0,19.11,0,28.96,0c0,2.11,0.14,4.16-0.1,6.17c-0.06,0.51-1.36,1.22-2.1,1.23
	c-5.4,0.11-10.81,0.06-16.22,0.06c-0.9,0-1.8,0-2.89,0c0,3.44,0,6.63,0,10.04c4.63,0,9.11,0.05,13.59-0.03
	c1.55-0.02,2.48,0.27,2.72,2.04c0.24,1.78,0.83,3.52,1.33,5.52c-5.96,0-11.68,0-17.8,0c0,3.14-0.1,6.1,0.1,9.04
	c0.03,0.46,1.39,1.16,2.15,1.18c5.32,0.1,10.64,0.05,15.97,0.05c0.91,0,1.82,0,3.22,0c0,2.31,0.06,4.49-0.07,6.66
	c-0.02,0.34-0.94,0.89-1.44,0.89c-8.65,0.05-17.3,0.03-25.95,0.05c-1.87,0-1.59-1.31-1.59-2.43c-0.01-7.98-0.01-15.96-0.01-23.94
	c0-4.57-0.01-9.14,0.01-13.71C311.21,124.63,311.29,123.74,311.34,122.72z"/>
<path class="st2" d="M230.67,165.6c-2.7,0-4.93,0.15-7.13-0.09c-0.71-0.08-1.56-1.08-1.92-1.86c-4.5-9.8-8.92-19.64-13.37-29.47
	c-0.27-0.59-0.58-1.17-1.11-2.24c-2.89,6.35-5.61,12.32-8.52,18.71c3.19,0,6.05,0.12,8.9-0.04c1.72-0.1,2.58,0.52,3.14,2.07
	c0.63,1.76,1.45,3.45,2.36,5.57c-5.51,0-10.56,0.08-15.6-0.05c-1.7-0.04-2.48,0.54-3.14,2.05c-2.45,5.58-2.51,5.56-8.68,5.36
	c-0.48-0.02-0.95-0.11-1.72-0.21c0.33-0.91,0.56-1.68,0.88-2.4c5.77-12.78,11.59-25.54,17.29-38.35c0.74-1.67,1.73-1.92,3.38-2.15
	c4.45-0.62,6.64,1.06,8.4,5.3c4.89,11.8,10.4,23.34,15.66,34.99C229.83,163.53,230.13,164.3,230.67,165.6z"/>
<path class="st2" d="M63.39,165.3c2.92-6.49,5.67-12.61,8.44-18.74c3.28-7.26,6.63-14.5,9.84-21.8c0.7-1.59,1.57-2.03,3.3-2.28
	c4.63-0.68,6.78,1.18,8.56,5.47c4.87,11.73,10.36,23.2,15.59,34.78c0.36,0.8,0.66,1.64,1.15,2.86c-2.67,0-4.98,0.16-7.25-0.1
	c-0.69-0.08-1.46-1.19-1.83-1.99c-4.36-9.51-8.65-19.06-12.96-28.59c-0.37-0.83-0.77-1.65-1.42-3.03
	c-2.91,6.39-5.62,12.36-8.53,18.77c3.25,0,6.19,0.08,9.12-0.03c1.48-0.06,2.29,0.43,2.81,1.82c0.68,1.83,1.53,3.59,2.5,5.82
	c-5.55,0-10.6,0.09-15.65-0.05c-1.71-0.05-2.48,0.58-3.14,2.07c-2.56,5.78-2.61,5.76-8.95,5.34
	C64.57,165.57,64.19,165.46,63.39,165.3z"/>
</svg>
