<?xml version="1.0" standalone="no"?>
<!DOCTYPE svg PUBLIC "-//W3C//DTD SVG 20010904//EN"
 "http://www.w3.org/TR/2001/REC-SVG-20010904/DTD/svg10.dtd">
<svg version="1.0" xmlns="http://www.w3.org/2000/svg"
 width="1656.000000pt" height="1656.000000pt" viewBox="0 0 1656.000000 1656.000000"
 preserveAspectRatio="xMidYMid meet">
<metadata>
Created by potrace 1.14, written by Peter Selinger 2001-2017
</metadata>
<g transform="translate(0.000000,1656.000000) scale(0.100000,-0.100000)"
fill="#000000" stroke="none">
<path d="M16335 12493 c-22 -2 -170 -14 -330 -28 -159 -14 -425 -36 -590 -50
-165 -14 -401 -34 -525 -45 -124 -11 -360 -31 -525 -45 -312 -27 -708 -61
-1095 -95 -660 -58 -801 -70 -865 -75 -38 -3 -173 -14 -300 -25 -126 -11 -367
-31 -535 -45 -303 -25 -496 -42 -1060 -90 -485 -42 -848 -73 -1160 -100 -162
-14 -398 -34 -525 -45 -126 -11 -369 -31 -540 -45 -497 -41 -495 -40 -516 -61
-24 -24 -23 -12 -21 -457 l2 -378 118 3 117 3 3 312 2 312 43 6 c23 3 152 14
287 25 264 21 473 39 835 70 127 11 363 31 525 45 410 35 843 72 1115 95 127
11 257 22 290 25 33 2 164 14 290 25 127 11 365 31 530 45 165 14 404 34 530
45 127 11 264 23 305 26 41 3 172 14 290 25 118 10 244 21 280 24 36 2 169 13
295 24 127 11 365 32 530 46 165 14 404 34 530 45 127 11 259 22 295 25 36 3
166 14 290 25 124 11 360 31 525 45 165 14 353 30 417 35 64 6 121 10 127 10
8 0 11 -1139 11 -3971 l0 -3971 -92 6 c-51 4 -194 16 -318 26 -124 11 -254 22
-290 25 -303 24 -1559 130 -1955 165 -121 11 -247 22 -280 25 -33 3 -190 16
-350 30 -634 55 -731 63 -1645 140 -168 14 -411 34 -540 45 -551 46 -1151 97
-1640 140 -204 18 -340 30 -710 60 -497 41 -502 42 -517 84 -4 12 -8 147 -8
301 l0 280 -115 0 -115 0 -3 -414 c-1 -228 1 -418 5 -422 5 -4 69 -12 143 -18
146 -13 588 -50 955 -81 127 -11 257 -22 290 -25 33 -2 164 -14 290 -24 127
-11 367 -32 535 -46 168 -14 409 -34 535 -45 127 -11 257 -22 290 -25 71 -6
414 -35 825 -70 162 -13 430 -36 595 -50 165 -14 404 -34 530 -45 127 -11 259
-22 295 -25 36 -3 166 -14 290 -25 124 -10 362 -31 530 -45 658 -55 904 -76
1125 -95 127 -11 257 -22 290 -25 60 -5 270 -23 820 -70 160 -13 329 -28 378
-31 l87 -7 0 4227 0 4226 -92 -2 c-51 -1 -111 -3 -133 -5z"/>
<path d="M5614 10676 c-263 -56 -462 -153 -661 -324 -129 -111 -278 -318 -354
-494 -82 -189 -119 -372 -119 -593 0 -199 24 -338 87 -510 151 -410 533 -744
980 -859 441 -114 927 -4 1262 284 40 34 75 69 78 77 6 16 -302 333 -324 333
-6 0 -51 -23 -100 -51 -120 -70 -287 -152 -353 -175 -84 -29 -322 -26 -445 5
-335 86 -586 340 -676 687 -33 126 -33 322 0 444 47 176 135 326 266 455 176
172 387 255 651 255 224 0 419 -68 587 -205 31 -25 59 -45 64 -45 4 0 82 74
173 165 l164 165 -44 45 c-102 104 -300 223 -473 285 -160 57 -254 73 -462 76
-169 3 -202 1 -301 -20z"/>
<path d="M10 10395 l0 -245 395 0 395 0 2 -1117 3 -1118 243 -3 242 -2 0 1125
0 1125 395 0 395 0 0 240 0 240 -1035 0 -1035 0 0 -245z"/>
<path d="M3047 10634 c-4 -4 -7 -619 -7 -1366 l0 -1358 240 0 240 0 -2 1363
-3 1362 -231 3 c-127 1 -233 -1 -237 -4z"/>
<path d="M9390 10630 c-36 -3 -79 -14 -95 -22 -17 -9 -249 -231 -515 -495
l-485 -478 -3 498 -2 497 -245 0 -245 0 0 -1360 0 -1360 245 0 245 0 2 498 3
497 511 -507 511 -508 327 0 c292 0 327 2 333 16 7 18 -40 65 -897 907 l-475
467 673 673 c370 370 670 676 666 680 -9 9 -466 7 -554 -3z"/>
<path d="M10885 10628 c-3 -7 -4 -623 -3 -1368 l3 -1355 925 0 925 0 0 222 c0
200 -2 224 -18 240 -17 17 -60 18 -682 21 l-665 2 0 320 0 320 565 0 c311 0
565 2 565 4 0 3 -20 85 -44 183 -25 98 -48 195 -51 216 -5 23 -18 46 -37 62
l-30 25 -484 0 -484 0 0 320 0 320 680 0 680 0 0 240 0 240 -920 0 c-727 0
-922 -3 -925 -12z"/>
<path d="M13652 10398 l3 -243 392 -3 393 -2 2 -1118 3 -1117 248 -3 247 -2 0
1125 0 1125 393 2 392 3 3 238 2 237 -1040 0 -1040 0 2 -242z"/>
<path d="M10555 7639 c-165 -24 -328 -108 -461 -235 -197 -191 -295 -408 -295
-654 0 -338 192 -647 496 -798 204 -102 434 -127 639 -72 307 82 558 344 642
670 22 86 26 117 22 199 -3 53 -10 108 -16 124 l-12 27 -509 0 -510 0 -10 -37
c-26 -96 -61 -243 -61 -257 0 -14 42 -16 386 -16 l386 0 -6 -27 c-30 -127
-164 -282 -301 -349 -79 -38 -81 -39 -216 -42 -129 -4 -141 -2 -221 25 -149
52 -252 138 -322 273 -123 234 -80 508 109 696 127 126 280 181 443 157 103
-16 168 -38 288 -99 l101 -51 102 100 101 100 -27 30 c-69 72 -226 164 -353
206 -115 37 -265 49 -395 30z"/>
<path d="M10 6756 l0 -867 153 3 152 3 5 578 5 578 269 -417 c242 -374 271
-414 283 -398 7 10 129 197 271 415 141 218 260 395 265 392 4 -2 7 -257 7
-567 0 -424 3 -565 12 -574 8 -8 56 -12 150 -12 l138 0 0 865 0 865 -129 0
c-71 0 -142 -5 -158 -11 -43 -16 -80 -56 -140 -153 -72 -117 -207 -326 -328
-510 -80 -121 -99 -146 -110 -135 -7 8 -74 111 -150 229 -254 396 -354 545
-377 560 -17 11 -61 16 -170 18 l-148 4 0 -866z"/>
<path d="M3387 7610 c-66 -17 -93 -37 -117 -87 -27 -59 -343 -756 -566 -1252
-90 -200 -164 -367 -164 -371 0 -12 38 -20 135 -26 161 -11 195 10 271 173 24
50 54 99 66 107 19 14 69 16 365 16 189 0 343 2 343 4 0 2 -16 39 -36 82 -20
44 -45 102 -56 131 -10 29 -33 64 -49 78 -30 25 -31 25 -231 25 -110 0 -198 4
-196 9 34 89 324 708 329 703 4 -4 134 -288 290 -632 206 -455 292 -634 315
-657 l32 -33 151 0 c83 0 151 1 151 3 0 13 -75 182 -240 542 -206 449 -263
576 -385 861 -87 203 -128 266 -197 302 -53 27 -149 37 -211 22z"/>
<path d="M5232 6759 l3 -864 150 0 150 0 5 555 5 555 24 -40 c35 -59 392 -664
505 -855 53 -91 110 -177 127 -192 29 -28 30 -28 179 -28 l150 0 0 865 0 865
-126 0 c-69 0 -134 -5 -144 -10 -11 -6 -23 -26 -29 -45 -5 -20 -7 -193 -4
-432 6 -392 -1 -643 -17 -626 -5 4 -149 247 -320 538 -171 292 -320 539 -331
550 -16 17 -36 20 -174 23 l-155 4 2 -863z"/>
<path d="M8188 7607 c-31 -7 -64 -19 -73 -27 -23 -19 -39 -53 -234 -488 -94
-211 -246 -548 -338 -750 -172 -381 -197 -441 -187 -451 11 -11 169 -18 225
-11 32 5 68 16 83 25 15 10 48 61 81 125 30 60 65 116 77 125 19 13 72 15 360
15 186 0 338 3 338 7 0 4 -26 68 -57 142 -75 178 -62 171 -310 171 -106 0
-193 3 -193 6 0 4 64 147 141 318 78 171 151 331 162 355 l20 45 19 -37 c10
-21 138 -302 284 -625 146 -323 275 -601 287 -619 12 -18 32 -37 45 -42 13 -6
87 -11 167 -11 l145 0 -19 48 c-10 26 -92 207 -181 402 -213 465 -371 819
-427 955 -83 201 -126 266 -205 306 -49 25 -138 32 -210 16z"/>
<path d="M14655 7600 l-190 -5 -3 -857 -2 -858 112 -2 c151 -2 160 0 181 24
16 19 17 67 17 705 l0 684 213 -3 c191 -3 217 -5 258 -24 147 -68 218 -263
146 -401 -63 -121 -137 -168 -283 -182 -49 -4 -99 -13 -112 -20 -36 -19 -151
-274 -130 -287 6 -4 43 -8 82 -9 92 -2 126 -20 168 -90 18 -31 81 -129 139
-219 76 -116 113 -165 130 -169 31 -9 349 -9 349 -1 0 6 -131 215 -282 448
l-57 89 57 42 c222 162 319 394 267 640 -49 234 -184 398 -380 463 -63 21
-309 44 -428 40 -34 -1 -147 -5 -252 -8z"/>
<path d="M12436 7554 c-3 -26 -6 -403 -6 -838 0 -700 2 -794 16 -814 l15 -22
548 0 c518 0 550 1 572 18 21 18 23 28 27 155 l5 137 -389 0 c-363 0 -392 2
-431 20 l-43 19 0 181 0 180 355 0 c195 0 355 3 355 7 0 5 -29 124 -61 245 -6
22 -19 43 -32 50 -16 8 -104 11 -314 9 l-293 -2 0 195 0 194 388 4 c342 3 391
5 418 20 38 21 44 45 44 184 l0 104 -584 0 -583 0 -7 -46z"/>
</g>
</svg>
